# xmcd
#
# Track frame offsets:
#	150
#	10702
#	25382
#	34474
#	46005
#	57292
#	66375
#	76205
#	86965
#	95818
#	104880
#	113728
#	123885
#	135844
#	149734
#	163008
#	173936
#	186470
#	197700
#	209549
#	220288
#	230019
#	243195
#	251384
#
# Disc length: 3484 seconds
#
# Revision: 0
# Processed by: cddbd v1.5.2PL0 Copyright (c) Steve Scherf et al.
# Submitted via: EasyCDDAExtractor 15.3.0.1
#
DISCID=660d9a18
DTITLE=Various Artist - Bluegrass That High Lonesome Sound CD 1
DYEAR=1900
DGENRE=
TTITLE0=Osborne Sonny - Uncle Pen (Kentucky 606)
TTITLE1=Rouse Brothers - Orange Blossom Special (Deluxe 2004)
TTITLE2=Barrier Brothers - Someday Sweetheart You'll Be Crying (Armoneer 1004)
TTITLE3=Chapman Lucky - Blue Grass
TTITLE4=Country Cutups - Jesus In Your Heart
TTITLE5=Flat Mountain Boys - Choo Choo Coming
TTITLE6=Lonesome Pine Fiddlers - Honky Tonk Blues
TTITLE7=Sexton Delmer - Love I Once Knew
TTITLE8=Paul and Roy - Way You Lied To Me
TTITLE9=Connie and Joe - Toil Tears And Trouble
TTITLE10=Perry Bill and Page Ross - Come Away Forever
TTITLE11=Osborne Sonny - Cripple Creek
TTITLE12=Allen Buddy and Trio - God Loves His Children
TTITLE13=Church Brothers - Darling Brown Eyes
TTITLE14=Stacey Ernest and Harlin Kazy - Lonesome Highway
TTITLE15=Eanes Jim - Your Old Standby
TTITLE16=Belcher Red - I Ain't Gonna Let Old Satan Turn Me Down
TTITLE17=Stanley Brothers and Clinch Mountain Boys - Nobody's Love Like Mine
TTITLE18=Barrier Boys - Wild Chord Breakdown
TTITLE19=Hobo Jack - I Feel So Lonesome
TTITLE20=Young Nelson - No Love But Yours
TTITLE21=Rainbow Valley Boys - Broken Hearted Means Nothing To You
TTITLE22=Red Heads - You'll Always Be Untrue
TTITLE23=Reno Don and Red Smiley - Green Mountain Hop
EXTD=
EXTT0=
EXTT1=
EXTT2=
EXTT3=
EXTT4=
EXTT5=
EXTT6=
EXTT7=
EXTT8=
EXTT9=
EXTT10=
EXTT11=
EXTT12=
EXTT13=
EXTT14=
EXTT15=
EXTT16=
EXTT17=
EXTT18=
EXTT19=
EXTT20=
EXTT21=
EXTT22=
EXTT23=
PLAYORDER=
